<?xml version="1.0" encoding="UTF-8"?><svg id="Layer_1" xmlns="http://www.w3.org/2000/svg" viewBox="0 0 682.92 721.45"><path d="M603.45,223.63c20.4,1.04,40.34,2.51,60.3,2.9,10.17,.2,20.07,7.43,19.1,19.9-1.88,24.23-3.25,48.5-4.84,72.76-1.43,21.76-2.84,43.52-4.3,65.28-1.55,23.09-3.17,46.17-4.7,69.26-1.47,22.09-2.88,44.19-4.3,66.29-1.13,17.61-2.21,35.23-3.37,52.84-1.17,17.94-2.38,35.88-3.61,53.82-1.48,21.42-2.99,42.85-4.51,64.27-.34,4.81-.42,9.68-1.29,14.4-1.96,10.61-10,16.71-20.7,16.06-40.72-2.49-81.43-5.06-122.15-7.53-46.04-2.79-92.09-5.45-138.12-8.26-41.22-2.51-82.43-5.18-123.64-7.7-24.43-1.49-48.87-2.81-73.3-4.27-5.48-.33-11.02-.44-16.39-1.44-10.16-1.89-15.91-9.88-15.15-20.22,.91-12.28,1.85-24.55,2.84-37.52-10.26,.55-20.34,1.04-30.42,1.62-20.61,1.19-41.23,2.23-61.82,3.73-12.02,.88-22.21-5.94-23.12-20.39-1-15.95-2.11-31.89-3.21-47.84-1.53-22.09-3.12-44.18-4.64-66.27-1.48-21.43-2.89-42.86-4.35-64.29-1.55-22.76-3.13-45.51-4.67-68.27-1.47-21.76-2.87-43.53-4.37-65.29-1.48-21.59-3.05-43.18-4.58-64.77C2.73,223.11,1.12,203.54,.03,183.93c-.6-10.86,7.37-19.21,18.66-20.05,29.38-2.17,58.79-4.1,88.17-6.23,26.73-1.93,53.45-4.07,80.18-5.92,3.4-.24,4-2.15,4.65-4.66,10.33-39.82,20.68-79.63,31.03-119.44,.96-3.69,1.98-7.36,2.95-11.05,3.39-12.89,13.04-18.89,26.02-15.79,66.8,15.99,133.6,31.95,200.34,48.15,53.84,13.07,107.61,26.42,161.37,39.83,4.23,1.06,8.61,2.83,12.07,5.41,6.6,4.92,8.7,11.92,6.58,19.99-9.19,34.96-18.39,69.92-27.58,104.88-.37,1.39-.64,2.81-1.03,4.57Zm25.22,473.25c9.75-149.05,19.45-297.42,29.14-445.46-153.43-8.82-305.97-17.59-458.93-26.39-10.4,147.77-20.79,295.25-31.2,443.22,153.76,9.55,306.93,19.06,460.99,28.63ZM25.23,188.99c9.77,142.18,19.5,283.78,29.24,425.48,2.23,0,4.04,.09,5.85-.01,26.76-1.58,53.52-3.21,80.28-4.78,6.79-.4,6.64-.32,7.11-7.08,1.52-21.59,3.19-43.16,4.75-64.75,.52-7.25,.86-14.51,1.28-21.84-6.78,.46-12.92,.89-19.07,1.28-14.29,.91-28.57,1.97-42.88,2.62-8.24,.37-13.45-4.65-14.16-12.83-.44-5.14-.81-10.29-1.18-15.44-1.59-22.25-3.18-44.5-4.74-66.75-1.48-21.09-2.91-42.19-4.38-63.28-1.52-21.75-3.12-43.5-4.61-65.26-1.49-21.75-2.76-43.52-4.38-65.27-.76-10.19,2.87-15.25,12.88-16.18,9.61-.89,19.25-1.44,28.88-2.18,25.22-1.94,50.44-3.89,75.66-5.87,1.1-.09,2.57-.23,3.19-.93,6.42-7.28,14.76-6.44,23.15-5.86,13.95,.96,27.93,2.73,41.86,2.37,18.94-.49,37.84-2.67,56.77-4.09,18.26-1.37,36.51-2.77,54.77-4.01,5.23-.36,9.9,2.69,11.82,7.55,.95,2.4,1.3,5.03,1.96,7.72,9.14,.53,18.2,1.05,27.77,1.6-1.11-16.55-2.18-32.57-3.29-49.16-123.05,9-245.51,17.95-368.55,26.95ZM155.62,490.62c5.96-86.18,11.9-171.92,17.87-258.18-30.24,2.22-59.87,4.4-89.83,6.6,5.9,85.33,11.76,170.22,17.64,255.26,18.52-1.26,36.11-2.45,54.33-3.68Zm61.53-341.31c9.73-.62,18.51-1.33,27.31-1.69,3.57-.14,5.18-1.45,5.97-5.02,1.87-8.42,4.19-16.73,6.37-25.07,3.52-13.48,7.02-26.97,10.65-40.42,2.87-10.64,8.23-13.63,18.81-11,30.44,7.57,60.88,15.12,91.34,22.61,59.78,14.68,119.57,29.3,179.35,43.99,9.57,2.35,12.44,7.33,9.94,17-3.48,13.49-7.04,26.97-10.61,40.43-2.66,10.04-5.41,20.06-8.19,30.38,10.06,.58,19.51,1.13,29.55,1.71,9.57-36.21,19.12-72.3,28.89-109.27-119.48-29.12-238.23-58.05-357.26-87.06-10.79,41.46-21.38,82.17-32.11,123.41Zm204.97,63.68c2.98,.24,5.92,.52,8.87,.7,9.14,.57,18.28,1.11,27.43,1.63,19.95,1.15,39.91,2.2,59.85,3.5,3.62,.24,4.8-1.03,5.62-4.38,2.33-9.5,5.14-18.88,7.67-28.33,2.81-10.54,5.52-21.1,8.3-31.78-83.74-20.62-167.1-41.14-250.7-61.73-4.54,17.59-8.95,34.71-13.46,52.17,1.61,0,2.76,.07,3.89-.01,14.12-.99,28.23-1.99,42.34-3.02,25.9-1.89,51.8-3.73,77.69-5.74,8.64-.67,16.79,5.19,17.99,13.73,.62,4.44,.78,8.95,1.09,13.44,1.14,16.43,2.25,32.86,3.41,49.82Z"/><path d="M205.4,549.8c2.09-28.56,4.15-55.79,6.07-83.02,1.84-26.24,3.48-52.5,5.3-78.74,1.5-21.59,3.17-43.17,4.68-64.76,1.16-16.61,2.17-33.23,3.29-49.84,.17-2.48,.36-4.99,.87-7.42,1.35-6.4,6.2-10.54,12.75-10.28,15.47,.6,30.94,1.45,46.4,2.35,19.12,1.12,38.22,2.43,57.33,3.61,24.93,1.54,49.86,3.03,74.8,4.52,25.27,1.51,50.54,2.98,75.8,4.51,25.6,1.54,51.19,3.15,76.79,4.69,13.46,.81,26.93,1.72,40.4,2.26,11.48,.46,16.36,4.86,15.75,16.24-1.22,22.78-2.91,45.53-4.4,68.3-1.51,22.93-3.01,45.85-4.52,68.78-1.54,23.43-3.1,46.85-4.64,70.28-1.13,17.11-2.22,34.23-3.37,51.34-.6,8.97-1.14,17.95-2.02,26.9-.74,7.54-6.2,12.52-13.8,12.17-20.63-.93-41.24-2.13-61.86-3.35-18.95-1.12-37.89-2.41-56.83-3.58-25.76-1.59-51.52-3.15-77.29-4.71-23.77-1.45-47.54-2.88-71.31-4.33-24.77-1.51-49.54-3.04-74.3-4.55-8.48-.51-16.96-1.41-25.44-1.36-17.37,.12-22.88-8.15-20.44-20.01Zm394.91-247.48c-117.29-7.09-234.18-14.15-351.34-21.23-4.64,66.75-9.23,132.85-13.93,200.59,1.73-2.09,2.47-3.18,3.39-4.09,33.61-33.3,67.21-66.6,100.86-99.85,10.12-10.01,19.5-9.49,28.13,1.78,17.8,23.25,35.39,46.66,53.12,69.97,8.52,11.21,17.14,22.36,25.99,33.89,10.78-9.76,21.15-19.11,31.47-28.52,8.95-8.17,18.04-7.77,26.03,1.27,20.96,23.71,41.89,47.43,62.86,71.12,5.67,6.41,11.44,12.74,17.82,19.83,5.23-82.04,10.39-163.05,15.6-244.76Zm-247.88,98.05c-.96,.37-1.15,.39-1.25,.49-38.77,38.03-77.54,76.06-116.27,114.13-1.03,1.01-2.29,2.34-2.41,3.62-.86,8.83-1.44,17.69-2.11,26.6,81.81,5.05,162.6,10.03,244.6,15.08-41.44-54.08-81.99-107-122.55-159.93Zm216.32,165.59c-26.84-30.22-52.74-59.39-78.76-88.68-9.83,8.57-19.2,16.73-28.6,24.92,12.36,16.67,24.84,32.66,36.31,49.35,5.45,7.93,11.2,13.11,21.28,11.42,.79-.13,1.65,.16,2.48,.21,15.27,.9,30.55,1.8,47.29,2.79Z"/><path d="M489.34,321.72c3.33,.26,6.32,2.36,7.41,6.52,1.1,4.15,1.92,8.39,2.65,12.63,1.92,11.13,8.69,17.97,18.99,21.68,4.2,1.51,8.51,2.73,12.75,4.13,4.53,1.5,6.72,4.79,6.53,9.45-.19,4.77-2.99,7.64-7.52,8.67-3.72,.85-7.51,1.33-11.26,2.02-12.1,2.24-19.95,9.16-23.18,21.14-1.04,3.84-2.06,7.68-3.16,11.5-1.32,4.57-4.47,6.96-9.17,6.94-4.23-.01-7.67-3.45-8.65-8.29-1.05-5.2-1.8-10.47-3.08-15.62-2.11-8.46-7.42-14.4-15.49-17.62-4.76-1.9-9.7-3.33-14.56-4.95-5.22-1.74-8.29-5.28-7.79-9.58,.58-5,3.51-8.1,8.5-9.12,5.03-1.03,10.14-1.74,15.06-3.12,9.35-2.63,15.23-9.04,18.31-18.13,1.38-4.07,2.49-8.24,3.98-12.27,1.45-3.96,4.32-6.19,9.69-5.99Zm-15.51,50.71c3.75,4.07,7.82,8.48,11.53,12.51,4.07-3.75,8.35-7.69,12.05-11.11-3.69-4.41-7.53-9-10.87-13-4.05,3.69-8.48,7.74-12.71,11.6Z"/></svg>
